<svg xmlns="http://www.w3.org/2000/svg" viewBox="0 0 1200 900"><rect width="1200" height="900" fill="#211e1a"/><g opacity=".18" stroke="#f0c56b"><path d="M80 120h1040M80 180h1040M80 240h1040M80 300h1040M80 360h1040M80 420h1040M80 480h1040M80 540h1040M80 600h1040M80 660h1040M80 720h1040"/></g><g transform="translate(320 190)"><path d="M70 430 270 70l300 120-110 360-315 40Z" fill="#e5a83b"/><path d="M160 390 300 145l160 65-78 255-222 28Z" fill="#35312b"/><circle cx="305" cy="310" r="48" fill="#f5f1e8"/><circle cx="305" cy="310" r="18" fill="#171513"/></g><g font-family="Arial, sans-serif"><text x="70" y="90" fill="#f5f1e8" font-size="28" font-weight="700" letter-spacing="5">IVARA WORKS</text><text x="70" y="825" fill="#f0c56b" font-size="24" letter-spacing="3">CUSTOM / PROTOTYPE</text></g></svg>